<svg xmlns="http://www.w3.org/2000/svg" xml:space="preserve" width="2000" height="1500" data-id="lg_m0wVxF2CkhXnpf8nNa" data-version="1" viewBox="0 0 2000 1500"><path fill="#ee3e38" stroke="transparent" d="M0 0h2000v1500H0z"/><g data-padding="20"><g transform="translate(-737.52 -531.899)scale(1.64773)"><rect width="326.584" height="557.445" x="490.703" y="21.261" fill="none" rx="0" ry="0" transform="translate(400.5 519.87)"/><path fill="#fff" d="m982.465 839.644-1.48-151.94q0-22.2.49-28.62.5-15.78 7.65-22.93 7.15-7.16 27.87-7.16h132.21q20.72 0 27.87 7.16 7.15 7.15 7.65 22.93.98 31.08.98 74.74t-1.97 105.82q-1.48 96.19-99.15 126.78-56.24 17.76-144.05 17.76-19.73 0-26.15-11.84-6.41-11.84-6.41-41.19t22.69-31.82q27.63-3.45 39.71-23.43 12.09-19.98 12.09-36.26m166.648-257.226c0-8.28-6.348-12.144-14.352-12.144h-46.092l-18.492-50.784c-2.76-8.832-11.04-15.456-20.976-15.456q-5.382 0-9.936 2.484c-40.02 19.872-63.204 57.132-72.036 111.504h52.44c1.38-22.908 5.52-49.68 24.288-65.688l21.528 32.292c2.484 4.692 7.452 8.28 12.972 8.28h56.028c8.556-.276 14.628-2.484 14.628-10.488"/><path fill="#fff" d="M1184.717 618.298h-47.472c-5.244 0-9.66-4.416-9.66-9.66s4.416-9.66 9.66-9.66h40.572l17.94-51.06c1.656-4.968 7.176-7.728 12.42-5.796 4.968 1.656 7.728 7.176 5.796 12.42l-20.148 57.408c-1.38 3.864-4.968 6.348-9.108 6.348m-91.08-160.908c-6.9 0-13.248 2.484-17.94 6.624a13.8 13.8 0 0 0-12.144-6.624c-8.004 0-14.352 6.348-14.352 14.352s6.348 14.352 14.352 14.352c.828 0 1.656 0 2.484-.276.552 14.904 12.696 26.496 27.6 26.496 15.18 0 27.6-12.42 27.6-27.6s-12.42-27.324-27.6-27.324"/></g><path fill="transparent" stroke="transparent" stroke-width="1.755" d="M713.046 187.5h573.908v1125H713.046z"/></g></svg>